<?xml version='1.0' encoding='iso-8859-1'?>
<svg version="1.1" xmlns="http://www.w3.org/2000/svg" viewBox="0 0 470 470" xmlns:xlink="http://www.w3.org/1999/xlink" enable-background="new 0 0 470 470">
  <g>
    <path d="m205.001,95.547c1.778,0 3.563-0.628 4.993-1.905 3.09-2.759 3.358-7.5 0.6-10.59-5.353-5.995-8.3-13.71-8.3-21.726 0-17.564 13.299-35.9 32.706-45.552 19.407,9.651 32.706,27.987 32.706,45.552 0,8.016-2.948,15.731-8.301,21.726-2.759,3.089-2.49,7.831 0.6,10.589 3.091,2.76 7.832,2.49 10.59-0.599 7.81-8.747 12.111-20.011 12.111-31.716 0-24.235-18.382-49.195-44.702-60.698-1.914-0.837-4.092-0.837-6.007,0-26.32,11.503-44.703,36.463-44.703,60.698 0,11.706 4.301,22.969 12.111,31.716 1.481,1.66 3.534,2.506 5.596,2.505z"/>
    <path d="m313.685,352.5h-31.187v-33.5c0-4.142-3.357-7.5-7.5-7.5h-2.5v-62.495c0-0.01 0-58.845 0-58.845 0-0.01 0-58.846 0-58.846 0-0.25-0.013-0.5-0.038-0.749-0.394-9.303-8.064-16.756-17.462-16.756h-12.5v-22.5c0-4.142-3.357-7.5-7.5-7.5s-7.5,3.358-7.5,7.5v22.5h-12.5c-9.649,0-17.5,7.851-17.5,17.5v118.843c0,0.005 0,58.845 0,58.845 0,0.005 0,2.503 0,2.503h-2.5c-4.142,0-7.5,3.358-7.5,7.5v33.5h-31.186c-2.797,0-5.361,1.556-6.653,4.037-1.291,2.481-1.095,5.474 0.509,7.765 17.937,25.614 46.438,41.663 77.33,43.914v54.284c0,4.142 3.358,7.5 7.5,7.5s7.5-3.358 7.5-7.5v-54.284c30.891-2.251 59.392-18.3 77.33-43.914 1.604-2.291 1.801-5.284 0.509-7.765-1.29-2.481-3.855-4.037-6.652-4.037zm-100.579-41l44.393-44.393v44.393h-44.393zm-.607-58.239l45-45v37.631l-45,45v-37.631zm2.5-124.452h40c0.526,0 1.018,0.176 1.426,0.467l-26.729,26.73c-2.929,2.929-2.929,7.678 0,10.606 1.464,1.464 3.384,2.197 5.303,2.197s3.839-0.732 5.303-2.197l17.196-17.196v37.632l-45,45v-100.739c0.001-1.355 1.146-2.5 2.501-2.5zm20,264.691c-23.667,0-46.171-9.512-62.644-26h32.644c4.142,0 7.5-3.358 7.5-7.5s-3.358-7.5-7.5-7.5h-2.5v-26h65v26h-32.5c-4.142,0-7.5,3.358-7.5,7.5s3.358,7.5 7.5,7.5h62.645c-16.474,16.488-38.977,26-62.645,26z"/>
  </g>
</svg>